<svg xmlns="http://www.w3.org/2000/svg" viewBox="0 0 144 240.749">
  <path fill="none" stroke="#eed145" stroke-width="4.5" d="M72 234.9V122.4"/>
  <path fill="#b3b3b3" d="M56.699001 234.9h1.8v4.5h-1.8zM63.898003 234.9h1.8v4.5h-1.8zM71.099998 234.9h1.8v4.5h-1.8zM78.297997 234.9h1.801v4.5h-1.801zM85.498001 234.9h1.801v4.5h-1.801z"/>
  <path fill="none" stroke="#1642b2" stroke-linejoin="round" stroke-width="4.5" d="M57.598999 122.4v112.5"/>
  <path fill="none" stroke="#ef9cdb" stroke-linejoin="round" stroke-width="4.5" d="M64.797997 122.4v112.5"/>
  <path fill="none" stroke="#f2681c" stroke-linejoin="round" stroke-width="4.5" d="M79.197998 123.234V234.9"/>
  <path fill="none" stroke="#cc1212" stroke-linejoin="round" stroke-width="4.5" d="M86.398003 123.234V234.9"/>
  <path fill="none" d="M56.249001 238.04999h2.7v2.6989999h-2.7z"/>
  <path fill="none" d="M57.596298 238.978h.0054v.005398h-.0054zM63.447998 238.04999h2.7v2.6989999h-2.7zM70.650002 238.04999h2.7v2.6989999h-2.7zM77.848999 238.04999h2.6989999v2.6989999H77.848999zM85.049004 238.04999h2.6989999v2.6989999H85.049004z"/>
  <g fill="#54b0e0">
    <path d="M40.5 108.89988l-4.5-4.5v-13.5h72v13.5l-4.5 4.5h-63"/>
    <path stroke="#c4baba" stroke-width=".48109999" d="M45.005 90.89988H99c2.485 0 4.5 2.015 4.5 4.5v27c0 2.485-2.015 4.5-4.5 4.5H45.005c-2.485 0-4.5-2.015-4.5-4.5v-27c0-2.485 2.015-4.5 4.5-4.5z"/>
  </g>
  <path fill="#b3b3b3" d="M72 .913c-26.765 0-48.975 19.45-53.25 45H9c-4.971 0-9 4.03-9 9 0 4.971 4.029 9 9 9h9.75C21.461 80.061 31.338 93.76 45 101.663v16.25h54v-16.25c13.662-7.903 23.539-21.602 26.25-37.75H135c4.971 0 9-4.029 9-9 0-4.97-4.029-9-9-9h-9.75c-4.275-25.551-26.485-45-53.25-45zm-63 49.5c2.485 0 4.5 2.015 4.5 4.5s-2.015 4.5-4.5 4.5-4.5-2.015-4.5-4.5 2.015-4.5 4.5-4.5zm126 0c2.485 0 4.5 2.015 4.5 4.5s-2.015 4.5-4.5 4.5-4.5-2.015-4.5-4.5 2.015-4.5 4.5-4.5z"/>
  <path fill="none" stroke="#b6b6b6" stroke-width="1.79999995" d="M126 54.9c0 29.823-24.177 54-54 54s-54-24.177-54-54S42.177.9 72 .9s54 24.177 54 54z"/>
  <path fill="none" stroke="#9c9c9c" stroke-width="1.79999995" d="M90.888 4.311c17.924 6.692 30.968 22.368 34.292 41.209M18.721 46.103c3.171-19.206 16.434-35.219 34.714-41.912M36.217 95.343c-8.991-7.955-15.074-18.679-17.29-30.478M125.084 64.801c-2.201 11.805-8.275 22.54-17.261 30.506"/>
  <path fill="#a8a8a8" stroke="#ededed" stroke-width="2" d="M88.35625759 20.17909863c4.20167084 9.01051214.3041006 19.71899842-8.70641154 23.92066926-9.01051215 4.20167084-19.71984366.30228799-23.92066926-8.70641154-4.20167084-9.01051215-.30410061-19.71899842 8.70641154-23.92066926 9.00869953-4.2008256 19.71899842-.30410061 23.92066926 8.70641154z"/>
  <g transform="translate(-4.5 -808.46218)">
    <path fill="#e5c467" stroke="#585858" stroke-linecap="square" stroke-linejoin="round" stroke-width=".44999999" d="M85.516 832.065c2.316 4.953.178 10.846-4.774 13.162-4.953 2.316-10.846.179-13.162-4.774-.003-.007-.006-.013-.009-.02-2.316-4.953-.178-10.846 4.774-13.162 4.952-2.316 10.845-.179 13.161 4.774.004.007.006.013.01.02z"/>
    <path fill="none" stroke="#585858" stroke-linecap="round" stroke-width=".22499999" d="M66.919 834.778l14.682-6.846M71.484 844.566l14.682-6.846"/>
    <linearGradient id="a" x1="290.18161" x2="292.88181" y1="-12.4274" y2="-12.4274" gradientTransform="matrix(2 0 0 -2 -506.5214 811.3932)" gradientUnits="userSpaceOnUse">
      <stop offset="0" stop-color="#fff" stop-opacity=".4911"/>
      <stop offset="1" stop-color="#e3c36d" stop-opacity=".3482"/>
    </linearGradient>
    <path fill="url(#a)" stroke="#96814d" stroke-linecap="round" stroke-linejoin="round" stroke-width=".09" d="M79.242 836.248c.003 1.491-1.204 2.702-2.695 2.704-1.491.002-2.702-1.205-2.704-2.696v-.008c-.002-1.491 1.205-2.702 2.696-2.704 1.491-.002 2.702 1.205 2.704 2.696-.001.003-.001.006-.001.008z"/>
  </g>
</svg>
