<svg xmlns="http://www.w3.org/2000/svg" viewBox="0 0 50.602942 73.971014">
  <path fill="none" stroke="#eed145" stroke-width="4.5" d="M76.5 238.5V126" transform="matrix(-.3514 -.00128 .00112 -.30725 52.045426 75.174749)"/>
  <path fill="#b3b3b3" d="M30.80645775 1.8169343l-.63253258-.00230286.00503375-1.38263242.63253258.00230286zM28.27667813 1.80772412l-.63253258-.00230286.00503374-1.38263243.63253258.00230287zM25.74584674 1.7985101l-.63253258-.00230286.00503375-1.38263243.63253258.00230287zM23.21641958 1.7893012l-.63288399-.00230414.00503375-1.38263243.63288399.00230415zM20.68628785 1.78008973l-.632884-.00230414.00503375-1.38263243.632884.00230415z"/>
  <path fill="none" stroke="#1642b2" stroke-linejoin="round" stroke-width="4.5" d="M62.098999 126v112.5" transform="matrix(-.3514 -.00128 .00112 -.30725 52.045426 75.174749)"/>
  <path fill="none" stroke="#ef9cdb" stroke-linejoin="round" stroke-width="4.5" d="M69.297997 126v112.5" transform="matrix(-.3514 -.00128 .00112 -.30725 52.045426 75.174749)"/>
  <path fill="none" stroke="#f2681c" stroke-linejoin="round" stroke-width="4.5" d="M83.697998 126.834V238.5" transform="matrix(-.3514 -.00128 .00112 -.30725 52.045426 75.174749)"/>
  <path fill="none" stroke="#cc1212" stroke-linejoin="round" stroke-width="4.5" d="M90.898003 126.834V238.5" transform="matrix(-.3514 -.00128 .00112 -.30725 52.045426 75.174749)"/>
  <path fill="none" d="M30.9681145.8496704l-.94879886-.0034543.00301912-.82927217.94879888.0034543z"/>
  <path fill="none" d="M30.495703.5628141l-.0018976-.0000069.00000605-.00165855.0018976.00000691zM28.43833664.84046022l-.94879887-.0034543.00301913-.82927217.94879887.0034543zM25.9075021.8312462l-.94879888-.0034543.00301913-.82927218.94879887.0034543zM23.37772423.82203601L22.4292768.818583l.00301912-.82927217.94844744.00345302zM20.84759214.81282454l-.94844743-.00345302.00301913-.82927217.94844743.00345302z"/>
  <g fill="#54b0e0">
    <path d="M36.35795494 40.5514036l1.57629771 1.38838959-.01510123 4.14789727-25.30130328-.09211464.01510123-4.14789727 1.5863652-1.37687526 22.13864037.0806003"/>
    <path stroke="#c4baba" stroke-width=".48109999" d="M117.005 926.362H171c2.485 0 4.5 2.015 4.5 4.5v27c0 2.485-2.015 4.5-4.5 4.5h-53.995c-2.485 0-4.5-2.015-4.5-4.5v-27c0-2.485 2.015-4.5 4.5-4.5z" transform="matrix(-.3514 -.00128 .00112 -.30725 74.83486854 330.85211542)"/>
  </g>
  <path fill="#b3b3b3" d="M25.16783955 73.6902505c9.40540809.03424234 17.2319143-5.91338745 18.76275967-13.7581978l3.42621815.01247386c1.74684415.00635975 3.16717091-1.22670982 3.1727304-2.75375052.00556061-1.52734795-1.40575127-2.77041943-3.15259542-2.77677918L43.9507342 54.401523c-.93460104-4.96496802-4.39012404-9.1866447-9.18220596-11.63233325l.01817741-4.99283931-18.97597746-.06908598-.01817741 4.99283931c-4.80976267 2.41073104-8.29593335 6.60713505-9.26666102 11.56516633l-3.42621815-.01247386c-1.74684415-.00635975-3.16716979 1.22640257-3.1727304 2.75375052-.00555949 1.5270407 1.40575127 2.77041943 3.15259542 2.77677918l3.42621815.01247386c1.47368328 7.85605621 9.25667668 13.86020836 18.66208477 13.8944507zm22.19401157-15.12835637c-.87324637-.00317923-1.57907746-.62486924-1.57629771-1.38838959.00277974-.76352035.71311883-1.3800545 1.5863652-1.37687526.87324637.00317924 1.57907745.62486924 1.5762977 1.3883896-.00277974.76352034-.71311882 1.38005449-1.5863652 1.37687525zm-44.27728074-.16120062c-.87324637-.00317923-1.57907746-.62486924-1.57629771-1.38838959.00277974-.76352035.71311883-1.3800545 1.5863652-1.37687526.87324637.00317924 1.57907745.62486924 1.5762977 1.3883896-.00277974.76352034-.71311882 1.38005449-1.5863652 1.37687525z"/>
  <path fill="none" stroke="#b6b6b6" stroke-width="1.79999995" d="M130.5 58.5c0 29.823-24.177 54-54 54s-54-24.177-54-54 24.177-54 54-54 54 24.177 54 54z" transform="matrix(-.3514 -.00128 .00112 -.30725 52.045426 75.174749)"/>
  <path fill="none" stroke="#9c9c9c" stroke-width="1.79999995" d="M95.388 7.911c17.924 6.692 30.968 22.368 34.292 41.209M23.221 49.703c3.171-19.206 16.434-35.219 34.714-41.912M40.717 98.943c-8.991-7.955-15.074-18.679-17.29-30.478M129.584 68.401c-2.201 11.805-8.275 22.54-17.261 30.506" transform="matrix(-.3514 -.00128 .00112 -.30725 52.045426 75.174749)"/>
  <path fill="#a8a8a8" stroke="#ededed" d="M153 854.362c0 4.971-4.029 9-9 9s-9-4.03-9-9c0-4.971 4.029-9 9-9 4.97 0 9 4.029 9 9z" transform="matrix(-.63791 .25738 -.295 -.55801 369.07413503 505.1134133)"/>
  <g transform="matrix(-.3514 -.00128 .00112 -.30725 51.14509912 322.46998183)">
    <path fill="#e5c467" stroke="#585858" stroke-linecap="square" stroke-linejoin="round" stroke-width=".44999999" d="M85.516 832.065c2.316 4.953.178 10.846-4.774 13.162-4.953 2.316-10.846.179-13.162-4.774-.003-.007-.006-.013-.009-.02-2.316-4.953-.178-10.846 4.774-13.162 4.952-2.316 10.845-.179 13.161 4.774.004.007.006.013.01.02z"/>
    <path fill="none" stroke="#585858" stroke-linecap="round" stroke-width=".22499999" d="M66.919 834.778l14.682-6.846M71.484 844.566l14.682-6.846"/>
    <linearGradient id="a" x1="290.18161" x2="292.88181" y1="-12.4274" y2="-12.4274" gradientTransform="matrix(2 0 0 -2 -506.5214 811.3932)" gradientUnits="userSpaceOnUse">
      <stop offset="0" stop-color="#fff" stop-opacity=".4911"/>
      <stop offset="1" stop-color="#e3c36d" stop-opacity=".3482"/>
    </linearGradient>
    <path fill="url(#a)" stroke="#96814d" stroke-linecap="round" stroke-linejoin="round" stroke-width=".09" d="M79.242 836.248c.003 1.491-1.204 2.702-2.695 2.704-1.491.002-2.702-1.205-2.704-2.696v-.008c-.002-1.491 1.205-2.702 2.696-2.704 1.491-.002 2.702 1.205 2.704 2.696-.001.003-.001.006-.001.008z"/>
  </g>
</svg>
